<svg xmlns="http://www.w3.org/2000/svg" viewBox="0 0 992 1068" fill="currentColor" aria-hidden="true"><path d="M 477 135.585 C 474.525 135.798, 466.650 136.465, 459.500 137.066 C 431.517 139.420, 400.922 145.757, 372 155.190 C 354.301 160.962, 351 162.438, 351 164.578 C 351 165.417, 354.076 169.355, 357.836 173.327 C 371.722 187.997, 382.028 205.623, 388.043 224.984 C 389.728 230.407, 391.732 235.363, 392.496 235.997 C 393.563 236.882, 396.972 236.452, 407.193 234.144 C 429.755 229.049, 434.862 228.513, 460.500 228.551 C 495.432 228.601, 514.583 232.673, 546.795 246.896 C 558.502 252.065, 562.888 252.243, 571.071 247.882 C 579.647 243.311, 586.529 235.416, 594.939 220.500 C 607.725 197.824, 619.219 183.894, 635.196 171.709 C 645.780 163.638, 645.315 163.112, 620.448 155.022 C 593.989 146.414, 565.773 140.302, 539.500 137.487 C 525.840 136.024, 485.984 134.811, 477 135.585 M 264.093 137.929 C 262.896 138.680, 262.880 139.954, 263.985 146.410 C 265.701 156.442, 265.043 161.649, 259.016 185.747 C 248.949 225.997, 248.530 243.789, 257.041 269.549 C 266.240 297.389, 289.534 317.617, 323.862 327.575 C 342.453 332.967, 342.513 330.345, 324.176 313.695 C 299.303 291.109, 288.306 274.514, 284.288 253.500 C 282.142 242.281, 283.068 232.464, 288.369 210.224 C 290.824 199.926, 293.116 189.813, 293.462 187.750 C 294.283 182.853, 295.347 183.005, 303.050 189.122 C 334.548 214.134, 350.999 247.040, 354.970 292.979 C 356.954 315.931, 353.535 336.504, 344.946 353.294 C 342.191 358.680, 340.202 363.518, 340.527 364.044 C 341.550 365.699, 347.612 365.090, 355.776 362.511 C 365.578 359.415, 375.192 352.824, 384.438 342.864 C 392.167 334.536, 392.353 335.391, 385.770 349 C 377.618 365.852, 360.129 379.794, 342.500 383.496 C 317.639 388.715, 304.855 378.874, 306.245 355.585 C 306.922 344.235, 306.602 343.717, 295.694 338.516 C 259.045 321.042, 235.278 290.055, 230.487 253.500 C 228.879 241.232, 227.595 241.542, 210.806 258.250 C 156.883 311.911, 117.411 387.298, 104.006 462.225 C 98.611 492.377, 96.503 535.110, 98.910 565.500 C 110.605 713.140, 204.135 843.175, 340.600 901.525 C 354.677 907.544, 379.932 916.158, 382.416 915.788 C 386.514 915.176, 384.729 912.972, 374.941 906.559 C 346.307 887.798, 326.179 868.012, 308.004 840.763 C 293.963 819.710, 284.992 800.226, 269.449 757.026 C 259.283 728.770, 256.605 724.132, 233.343 694.500 C 187.746 636.418, 166.265 549.263, 178.975 473.919 C 181.896 456.607, 185.173 442, 186.137 442 C 186.612 442, 187 447.063, 187.001 453.250 C 187.004 490.160, 197.652 540.278, 213.612 578.500 C 228.156 613.329, 251.608 650.663, 274.822 675.939 C 286.628 688.794, 288.944 688.123, 283.365 673.462 C 270.681 640.127, 265.486 611.011, 265.530 573.500 C 265.576 534.121, 270.901 507.805, 285.572 474.453 C 292.021 459.792, 304.517 437.184, 305.583 438.250 C 305.762 438.429, 304.603 443.629, 303.007 449.807 C 291.924 492.699, 290.286 543.772, 298.558 588.500 C 306.987 634.072, 329.257 677.286, 361.565 710.757 C 374.953 724.627, 378.251 723.293, 369.541 707.529 C 353.652 678.771, 346.001 650.315, 346.009 620 C 346.012 607.773, 348.231 588.369, 349.806 586.794 C 350.242 586.358, 351.154 590.987, 351.831 597.081 C 357.688 649.752, 389.154 702.330, 433.902 734.213 C 438.523 737.506, 453.072 746.671, 466.234 754.579 C 479.395 762.487, 492.661 770.730, 495.715 772.896 C 501.386 776.919, 504 777.242, 504 773.919 C 504 768.709, 491.583 742.800, 484.370 732.958 C 478.399 724.811, 478.347 724.626, 482.645 726.821 C 493.718 732.475, 509.464 746.932, 516.777 758.158 C 519.130 761.769, 523.272 769.778, 525.981 775.956 C 534.330 794.995, 537.009 796.959, 561.493 801.998 C 595.007 808.894, 616.469 817.073, 646.636 834.444 C 661.416 842.955, 666.869 844.563, 675.886 843.071 C 698.218 839.376, 713.912 824.519, 725.552 796.055 C 730.636 783.623, 736.172 773.755, 739.697 770.843 C 741.151 769.642, 741.256 769.816, 740.696 772.500 C 737.276 788.878, 737.331 791, 741.176 791 C 744.939 791, 755.523 779.206, 759.797 770.250 C 764.430 760.540, 765.008 748.976, 761.271 740.750 C 758.559 734.782, 757.572 734.759, 746.863 740.422 C 734.636 746.887, 728.627 748.359, 717.065 747.723 C 699.154 746.738, 687.932 741.407, 661.073 721.126 C 641.449 706.308, 624.486 699.214, 603.195 696.920 C 597.313 696.287, 589.913 696.039, 586.750 696.369 C 578.855 697.193, 579.539 695.723, 588.250 693.149 C 600.208 689.615, 610.380 688.675, 623.594 689.883 C 630.017 690.470, 635.661 690.710, 636.136 690.416 C 637.532 689.553, 637.129 686.056, 634.564 676.787 C 631.945 667.317, 629.614 651.292, 630.159 646.500 C 630.433 644.090, 631.247 645.638, 634.295 654.365 C 641.019 673.615, 649.013 686.832, 661.721 699.716 C 684.033 722.335, 714.761 730.789, 736.032 720.161 C 739.873 718.241, 741.500 716.844, 741.500 715.464 C 741.500 713.704, 740.562 713.434, 732.468 712.864 C 710.246 711.298, 691.343 701.655, 676.807 684.469 C 650.377 653.222, 644.612 611.368, 662.263 578.883 C 666.656 570.799, 666.261 570.415, 652.840 569.712 C 640.314 569.056, 633.745 567.411, 624.002 562.493 C 601.896 551.334, 589.149 527.944, 592.079 503.917 C 594.051 487.751, 601.230 478.026, 617.762 469.128 C 629.676 462.716, 641.460 454.716, 641.814 452.800 C 641.986 451.866, 639.624 448.067, 636.566 444.358 C 630.222 436.668, 624.478 425.994, 616.999 408 C 604.273 377.382, 590.370 356.128, 570.904 337.530 C 562.310 329.320, 562.529 328.901, 572.500 334.470 C 581.085 339.265, 590.770 346.528, 598.916 354.281 C 602.799 357.976, 606.446 361, 607.020 361 C 610.473 361, 608.905 352.201, 602.982 338.338 C 581.113 287.154, 527.278 255.031, 463.322 255.006 C 442.871 254.998, 433.327 256.363, 413.810 262.087 C 405.109 264.639, 404.696 265.948, 409.884 274.549 C 414.456 282.129, 417.026 291.828, 416.946 301.197 L 416.892 307.500 413.835 301.168 C 410.046 293.319, 401.028 283.536, 393.037 278.604 C 384.848 273.549, 383.630 274.071, 381.524 283.538 C 380.611 287.642, 379.486 291, 379.024 291 C 378.114 291, 376.011 279.457, 373.469 260.500 C 368.413 222.799, 359.146 202.070, 338.336 181.909 C 324.245 168.259, 302.281 153.679, 279.833 143.076 C 267.621 137.307, 265.952 136.762, 264.093 137.929 M 691.500 161.300 C 675.929 168.127, 662.841 175.668, 651.013 184.628 C 633.674 197.762, 625.731 207.401, 611.500 232.578 C 601.421 250.408, 593.144 259.999, 582.750 265.889 C 579.210 267.895, 577 269.814, 577 270.882 C 577 271.837, 580.682 275.959, 585.183 280.043 C 589.683 284.126, 597.378 292.312, 602.283 298.234 C 607.187 304.155, 611.550 309, 611.978 309 C 613.744 309, 614.811 306.048, 615.955 298 C 621.747 257.266, 638.885 226.601, 667.837 205.171 C 672.422 201.777, 676.510 199, 676.923 199 C 678.143 199, 680.362 236.003, 679.719 245.632 C 678.117 269.642, 664.415 292.277, 640.756 310 C 623.156 323.184, 651.078 318.092, 672.500 304.211 C 692.408 291.311, 704.507 271.606, 708.136 246.173 C 709.445 237.001, 708.706 216.582, 706.428 199 C 704.541 184.429, 704.999 174.427, 707.999 164.730 C 709.151 161.006, 709.820 157.519, 709.487 156.980 C 708.243 154.967, 703.161 156.187, 691.500 161.300 M 728.607 215.582 C 728.273 216.452, 728 223.221, 728 230.624 C 728 239.019, 727.403 246.974, 726.414 251.763 C 716.810 298.258, 689.680 325.508, 641.500 337.052 C 633.638 338.936, 630.428 341.067, 631.448 343.724 C 632.335 346.036, 636.812 369.267, 638.535 380.500 C 641.689 401.055, 648 417.495, 657.213 429.150 C 662.840 436.269, 663.766 435.964, 676.622 422.750 C 689.412 409.604, 697.300 399.314, 708.951 380.579 C 713.595 373.110, 717.673 367, 718.012 367 C 718.732 367, 723.246 390.380, 725.736 407 C 727.895 421.420, 728.186 464.984, 726.209 478 C 723.953 492.856, 719.882 512.136, 716.841 522.374 C 712.529 536.888, 713.528 537.835, 724.893 530.006 C 773.829 496.295, 819.506 429.342, 843.488 356.170 C 846.873 345.839, 846.608 344.302, 839.320 332.002 C 818.367 296.646, 787.112 259.537, 755.633 232.640 C 734.654 214.715, 730.054 211.812, 728.607 215.582 M 866.647 337.763 C 866.387 338.182, 864.588 344.145, 862.648 351.013 C 837.183 441.174, 790.192 510.707, 725.500 553.948 C 720 557.625, 709.100 564.151, 701.277 568.452 C 692.761 573.134, 685.230 578.070, 682.508 580.753 C 672.239 590.878, 665.105 615.868, 671.741 618.468 C 674.442 619.526, 699.814 606.307, 716.805 594.989 C 734.102 583.468, 748.520 572.039, 763.351 558.094 C 778.164 544.166, 778.257 544.355, 765.205 561.847 C 744.730 589.287, 713.463 617.069, 680.737 636.899 C 674.709 640.552, 674.383 642.083, 677.993 649.809 C 684.097 662.873, 687.681 664.344, 699.528 658.649 C 730.025 643.990, 771.861 605.831, 800.461 566.586 C 838.739 514.060, 861.800 454.443, 868.438 390.843 C 870.332 372.704, 871.504 345.501, 870.600 340.683 C 869.968 337.311, 867.879 335.769, 866.647 337.763 M 698.695 423.250 C 677.326 452.091, 657.332 469.317, 628.423 483.794 C 611.665 492.186, 607.395 497.586, 608.176 509.398 C 608.679 516.999, 609.918 517.149, 622.503 511.137 C 628.446 508.298, 633.503 506.170, 633.741 506.408 C 633.979 506.646, 629.859 511.348, 624.587 516.858 C 614.248 527.662, 613.801 528.729, 616.987 534.974 C 621.491 543.804, 625.146 543.923, 636.184 535.597 C 655.445 521.069, 672.504 501.639, 686.250 478.575 C 695.142 463.655, 695.474 463.967, 691.518 483.507 C 688.620 497.822, 683.374 515.622, 678.469 527.787 C 674.700 537.133, 674.221 540, 676.429 540 C 680.883 540, 693.379 519.108, 699.788 500.943 C 709.180 474.325, 714.963 412, 708.040 412 C 707.485 412, 703.279 417.063, 698.695 423.250 M 884.546 465.250 C 884.276 466.488, 883.111 473.350, 881.958 480.500 C 870.328 552.600, 842.064 617.828, 794.826 681.579 C 783.494 696.871, 780.747 702.146, 778.962 712.036 C 777.815 718.390, 777.867 718.712, 782.022 731 C 786.122 743.124, 786.233 743.786, 785.695 753 C 784.463 774.094, 776.371 788.342, 754.610 807.733 C 748.294 813.360, 739.554 822.360, 735.188 827.733 C 716.276 851.002, 697.765 863.817, 678.228 867.168 C 671 868.407, 669.519 868.261, 654.326 864.811 C 649.551 863.727, 648.355 863.878, 638.826 866.772 C 602.579 877.779, 563.648 875.450, 538.500 860.768 C 533.443 857.816, 527.336 852.465, 516.500 841.490 C 500.778 825.567, 494.382 820.332, 482.024 813.271 C 471.625 807.330, 468.409 807.421, 462.164 813.831 C 442.040 834.493, 442.602 873.266, 463.450 902.482 C 478.819 924.020, 501.711 934.319, 529.014 931.979 C 675.736 919.405, 802.811 828.855, 862.352 694.450 C 886.098 640.847, 898.082 575.440, 895.011 516.203 C 894.111 498.852, 890.059 466.522, 888.459 463.934 C 887.386 462.197, 885.041 462.986, 884.546 465.250 M 527 495.480 C 527 495.806, 529.258 499.019, 532.019 502.620 C 538.338 510.866, 545.147 524.857, 548.476 536.439 C 551.559 547.168, 551.490 547.077, 553.025 542.423 C 557.038 530.264, 552.755 517.705, 540.490 505.669 C 533.859 499.160, 527 493.980, 527 495.480 M 436.500 509.535 C 428.714 511.446, 419 515.035, 419 516 C 419 516.416, 421.972 517.503, 425.604 518.416 C 432.410 520.125, 443.024 524.629, 446.435 527.254 C 448.178 528.596, 448.377 530.123, 448.435 542.622 C 448.498 556.093, 448.594 556.698, 451.695 563.244 C 456.031 572.398, 459.263 576.385, 466.426 581.418 C 477.655 589.307, 490.174 591.750, 504.014 588.754 C 514.845 586.408, 516.094 589.018, 507.750 596.559 C 491.521 611.224, 468.498 613.599, 446.552 602.870 L 440.500 599.912 446.723 605.905 C 471.224 629.504, 510.674 625.274, 534 596.546 C 537.732 591.950, 539.642 590.566, 545.188 588.438 C 556.651 584.041, 562.799 578.257, 566.091 568.775 C 567.869 563.653, 567.082 563.410, 560.986 567.199 C 556.532 569.968, 554.569 570.533, 548.306 570.850 C 534.796 571.532, 526.014 564.930, 498.924 533.728 C 487.865 520.991, 479.446 514.471, 469.254 510.752 C 461.786 508.027, 445.160 507.409, 436.500 509.535 M 467.609 542.020 C 463.110 553.262, 468.007 567.403, 478.533 573.572 C 486.736 578.379, 502.502 577.523, 507.501 571.999 C 509.308 570.002, 509.303 569.884, 507.290 567.226 C 505.340 564.650, 504.838 564.516, 498.177 564.793 C 491.581 565.066, 490.913 564.894, 487.814 562.125 C 484.682 559.328, 484.491 558.768, 484.343 551.961 C 484.171 544.083, 483.771 543.388, 477.515 540.097 C 471.470 536.916, 469.497 537.299, 467.609 542.020 M 837.072 552.250 C 815.115 600.458, 771.555 658.060, 739.707 681 C 728.624 688.983, 729.390 691.683, 742.263 690.004 C 760.064 687.682, 768.405 682.271, 783.883 663 C 805.022 636.682, 825.317 600.096, 838.800 564 C 845.139 547.027, 845.994 543, 843.254 543 C 841.741 543, 840.309 545.142, 837.072 552.250 M 570.500 716.492 C 560.381 720.045, 555.854 733.842, 561.065 745.250 C 562.494 748.379, 564.066 748.970, 563.315 746.095 C 562.582 743.293, 564.799 730.304, 566.633 726.654 C 567.504 724.919, 570.062 721.587, 572.317 719.250 C 576.757 714.647, 576.569 714.361, 570.500 716.492 M 589 737.173 C 581.321 742.366, 579.930 751.611, 585.250 762.095 C 589.241 769.961, 592.245 772.063, 603.538 774.896 C 618.724 778.705, 630.130 786.546, 633.924 795.788 C 635.691 800.091, 637.105 799.469, 639.271 793.434 C 641.624 786.880, 641.074 773.730, 638.124 766 C 630.513 746.064, 601.247 728.890, 589 737.173 M 654.943 748.250 C 659.423 755.059, 664.008 765.099, 665.817 772.063 C 667.953 780.285, 669.200 779.856, 669.200 770.898 C 669.200 763.408, 665.904 756.261, 659.415 749.679 C 654.073 744.260, 651.849 743.550, 654.943 748.250 M 539.375 821.465 C 538.231 824.445, 552.985 839.912, 560.751 843.873 C 571.294 849.252, 594.715 851.275, 610.201 848.146 C 625.266 845.102, 623.194 842.199, 599.072 832.548 C 585.947 827.297, 576.069 824.638, 560 822.029 C 544.976 819.591, 540.145 819.458, 539.375 821.465"/></svg>